PathFileType	4	(x/y/z)	TRC_MarkerData\Passive\Passive_Pref0004.trc
DataRate	CameraRate	NumFrames	NumMarkers	Units	OrigDataRate	OrigDataStartFrame	OrigNumFrames
240	240	4	49	mm	240	227	259
Frame#	Time	R_AC			L_AC			HEAD			STERN			L_IC			R_IC			L_ASIS			R_ASIS			L_GT			R_GT			L_PSIS			R_PSIS			SACRAL			L_LAT_KNEE			L_MED_KNEE			R_LAT_KNEE			R_MED_KNEE			L_LAT_ANK			L_MED_ANK			R_LAT_ANK			R_MED_ANK			L_THIGH_PROX_POST			L_THIGH_PROX_ANT			L_THIGH_DIST_ANT			L_THIGH_DIST_POST			R_THIGH_PROX_POST			R_THIGH_PROX_ANT			R_THIGH_DIST_ANT			R_THIGH_DIST_POST			L_SHANK_PROX_POST			L_SHANK_PROX_ANT			L_SHANK_DIST_ANT			L_SHANK_DIST_POST			R_SHANK_PROX_POST			R_SHANK_PROX_ANT			R_SHANK_DIST_ANT			R_SHANK_DIST_POST			L_HEEL_LAT			L_HEEL_SUP			L_HEEL_MED			R_HEEL_LAT			R_HEEL_SUP			R_HEEL_MED			L_1ST_MET			L_5TH_MET			L_TOE			R_1ST_MET			R_5TH_MET			R_TOE			
		X1	Y1	Z1	X2	Y2	Z2	X3	Y3	Z3	X4	Y4	Z4	X5	Y5	Z5	X6	Y6	Z6	X7	Y7	Z7	X8	Y8	Z8	X9	Y9	Z9	X10	Y10	Z10	X11	Y11	Z11	X12	Y12	Z12	X13	Y13	Z13	X14	Y14	Z14	X15	Y15	Z15	X16	Y16	Z16	X17	Y17	Z17	X18	Y18	Z18	X19	Y19	Z19	X20	Y20	Z20	X21	Y21	Z21	X22	Y22	Z22	X23	Y23	Z23	X24	Y24	Z24	X25	Y25	Z25	X26	Y26	Z26	X27	Y27	Z27	X28	Y28	Z28	X29	Y29	Z29	X30	Y30	Z30	X31	Y31	Z31	X32	Y32	Z32	X33	Y33	Z33	X34	Y34	Z34	X35	Y35	Z35	X36	Y36	Z36	X37	Y37	Z37	X38	Y38	Z38	X39	Y39	Z39	X40	Y40	Z40	X41	Y41	Z41	X42	Y42	Z42	X43	Y43	Z43	X44	Y44	Z44	X45	Y45	Z45	X46	Y46	Z46	X47	Y47	Z47	X48	Y48	Z48	X49	Y49	Z49	

227	0.94532	568.61	1523.5	443.03	554.68	1528.2	90.836	545	1809.5	263.76	596.9	1468.3	266.66	501.51	1100.6	113.02	534.54	1118.4	435.43	564.82	1022.9	132.48	598.58	1023.3	403.1	495.08	936.89	83.931	517.51	953.49	466.96	392.45	1084.7	238.62	402.5	1093.2	330.23	382.4	1057.6	287.32	668.63	568.85	127.96	674.68	552.49	264.39	432.88	545.42	401.53	415.73	565.53	270.86	653.89	149.51	124.36	674.06	143.95	191.49	293.21	135.97	358.05	305.96	155.64	269.59	562.7	772.66	112.38	621.14	798.4	127.48	656.35	733.47	139.54	597.2	705.72	124.31	437.54	753.77	435.7	505.35	749.82	433.72	493.13	676.28	419.68	426.28	681.37	420.2	654.79	483.12	128.62	702.81	493.46	142.8	694.69	434.97	145.95	637.4	423.08	151.38	328.38	399.32	403.04	394.97	384.66	397.71	373.54	312.61	383.32	305.54	330.47	386	580.49	74.118	146.59	585.3	98.532	182.37	601.06	68.031	209.96	208.99	83.667	332.02	211.98	111.69	298.25	222.75	82.68	266.09	802.94	88.781	163.43	742.64	78.864	70.409	849.2	101.07	114.15	426.47	53.383	282.22	385.12	47.2	385.48	476.68	47.54	335.1
228	0.9495	574.49	1523	442.99	560.48	1527.7	90.827	551.09	1808.9	263.34	602.68	1467.7	266.67	508	1100.2	112.69	539.79	1117.7	435.21	571.36	1022.6	132.3	604.02	1022.6	403.04	501.73	936.41	83.406	522.33	952.86	466.65	398.63	1084.1	237.85	408.24	1092.5	329.51	388.37	1056.9	286.49	674.09	567.75	127.8	679	551.31	264.28	435.16	545.51	401.34	418.51	565.56	270.58	671.39	148.14	123.63	691.02	143.01	190.98	293.85	136.59	357.68	306.64	156.1	269.22	568.15	771.85	112.16	626.73	797.35	127.41	661.54	732.21	139.52	602.32	704.73	124.12	441.06	753.95	435.15	508.83	749.53	433.39	496.22	676.06	419.43	429.38	681.61	419.71	662.69	481.62	128.25	710.26	493.33	142.95	703.8	434.58	145.95	646.8	421.05	150.77	330.02	399.8	402.78	396.56	384.85	397.53	374.83	312.91	383.1	306.84	331.01	385.7	599.99	70.532	144.98	603.77	94.911	180.78	620.03	64.931	208.52	209.37	84.66	331.8	212.5	112.6	297.98	223.14	83.458	265.88	821.79	91.591	164.3	762.79	80.134	70.623	868.17	105.29	115.58	426.59	53.293	282.14	385.28	47.382	385.37	476.74	47.389	335.11
229	0.95368	580.37	1522.5	442.94	566.28	1527.1	90.807	557.2	1808.1	262.91	608.46	1467	266.67	514.54	1099.8	112.36	545.05	1116.9	435	577.94	1022.1	132.13	609.49	1021.9	403	508.43	935.85	82.868	527.17	952.17	466.34	404.84	1083.3	237.06	414.01	1091.7	328.77	394.38	1056.2	285.64	679.55	566.55	127.6	683.25	550	264.12	437.48	545.56	401.14	421.36	565.55	270.29	688.71	146.99	122.98	707.77	142.27	190.57	294.5	137.2	357.3	307.33	156.54	268.84	573.57	770.94	111.89	632.32	796.18	127.28	666.7	730.81	139.41	607.4	703.64	123.86	444.59	754.1	434.59	512.32	749.19	433.08	499.33	675.81	419.19	432.5	681.81	419.2	670.58	480.09	127.86	717.64	493.13	143.09	712.83	434.17	145.96	656.16	419.04	150.14	331.69	400.27	402.51	398.18	385.02	397.33	376.15	313.19	382.86	308.16	331.54	385.37	619.35	67.25	143.44	622.05	91.576	179.25	638.79	62.117	207.16	209.76	85.647	331.58	213.02	113.5	297.7	223.54	84.231	265.66	840.29	94.577	165.34	782.69	81.632	71.004	886.78	109.67	117.21	426.71	53.202	282.07	385.46	47.567	385.26	476.8	47.241	335.13
230	0.95786	586.26	1521.9	442.88	572.1	1526.4	90.775	563.33	1807.3	262.49	614.26	1466.3	266.65	521.13	1099.3	112.02	550.33	1116	434.79	584.57	1021.6	131.98	614.99	1021.1	402.96	515.18	935.22	82.319	532.03	951.43	466.04	411.09	1082.5	236.26	419.8	1090.9	328.02	400.44	1055.3	284.79	685.04	565.25	127.37	687.47	548.57	263.91	439.84	545.59	400.93	424.29	565.51	269.99	705.84	146.04	122.42	724.28	141.71	190.26	295.15	137.8	356.91	308.02	156.98	268.45	579	769.94	111.55	637.91	794.9	127.07	671.83	729.31	139.22	612.47	702.44	123.54	448.14	754.2	434.02	515.84	748.82	432.78	502.46	675.52	418.95	435.65	681.98	418.67	678.46	478.52	127.46	724.97	492.86	143.25	721.76	433.74	146	665.46	417.05	149.51	333.4	400.72	402.23	399.83	385.16	397.12	377.49	313.46	382.62	309.51	332.06	385.03	638.51	64.27	141.98	640.1	88.523	177.79	657.32	59.584	205.89	210.16	86.633	331.35	213.55	114.39	297.42	223.94	85.003	265.43	858.41	97.714	166.56	802.29	83.342	71.548	905.01	114.17	119.05	426.82	53.109	282	385.63	47.755	385.15	476.86	47.095	335.15
